<svg xmlns="http://www.w3.org/2000/svg" id="canvas" viewBox="149.135 324.507 150.627 91.519"><path d="M 169.02,360.52 C 168.81 361.35, 168.89 362.40, 168.69 364.68 C 168.48 366.95, 168.41 368.45, 168.00 371.88 C 167.59 375.31, 167.38 377.73, 166.64 381.80 C 165.90 385.87, 165.37 388.28, 164.30 392.23 C 163.22 396.18, 162.44 398.38, 161.28 401.57 C 160.12 404.75, 159.47 406.14, 158.49 408.14 C 157.51 410.15, 157.05 411.00, 156.37 411.60 C 155.70 412.20, 155.47 412.04, 155.11 411.14 C 154.76 410.24, 154.75 409.09, 154.59 407.10 C 154.43 405.12, 154.24 403.77, 154.30 401.22 C 154.35 398.67, 154.39 397.18, 154.87 394.36 C 155.35 391.55, 155.77 389.99, 156.68 387.15 C 157.59 384.31, 158.15 382.85, 159.42 380.17 C 160.69 377.49, 161.49 376.12, 163.03 373.75 C 164.58 371.38, 165.47 370.20, 167.14 368.34 C 168.81 366.47, 169.75 365.57, 171.38 364.42 C 173.01 363.27, 173.88 362.91, 175.30 362.58 C 176.72 362.25, 177.35 362.38, 178.48 362.78 C 179.62 363.17, 180.12 363.52, 180.96 364.57 C 181.81 365.62, 182.19 366.32, 182.71 368.04 C 183.23 369.75, 183.45 370.88, 183.56 373.16 C 183.67 375.45, 183.61 376.77, 183.24 379.47 C 182.87 382.17, 182.55 383.79, 181.73 386.66 C 180.91 389.54, 180.34 391.11, 179.15 393.86 C 177.96 396.61, 177.15 398.07, 175.78 400.43 C 174.40 402.79, 173.67 403.88, 172.27 405.66 C 170.88 407.44, 170.09 408.18, 168.81 409.31 C 167.53 410.45, 166.85 410.79, 165.89 411.32 C 164.93 411.85, 164.51 412.03, 164.01 411.95 C 163.52 411.88, 163.40 411.75, 163.40 410.96 C 163.41 410.17, 163.48 409.57, 164.04 408.01 C 164.59 406.44, 165.05 405.47, 166.17 403.12 C 167.28 400.78, 168.04 399.26, 169.61 396.29 C 171.19 393.32, 172.20 391.49, 174.05 388.28 C 175.90 385.06, 176.97 383.28, 178.88 380.20 C 180.79 377.12, 181.85 375.54, 183.58 372.88 C 185.31 370.23, 186.22 368.93, 187.53 366.92 C 188.83 364.91, 189.39 363.96, 190.10 362.83 C 190.80 361.70, 190.94 361.29, 191.04 361.27 C 191.14 361.26, 190.88 361.51, 190.59 362.74 C 190.29 363.97, 189.91 365.02, 189.56 367.41 C 189.21 369.81, 189.07 371.56, 188.83 374.71 C 188.59 377.86, 188.44 379.83, 188.37 383.15 C 188.29 386.46, 188.21 388.37, 188.45 391.27 C 188.70 394.18, 188.90 395.58, 189.59 397.66 C 190.28 399.74, 190.76 400.69, 191.90 401.67 C 193.04 402.66, 193.78 402.85, 195.28 402.58 C 196.77 402.31, 197.64 401.86, 199.37 400.30 C 201.09 398.75, 202.16 397.42, 203.91 394.79 C 205.66 392.15, 206.61 390.19, 208.11 387.13 C 209.61 384.06, 210.44 382.13, 211.41 379.46 C 212.37 376.80, 212.67 375.31, 212.95 373.81 C 213.24 372.31, 213.06 371.86, 212.81 371.96 C 212.56 372.06, 212.09 372.68, 211.68 374.31 C 211.28 375.93, 210.93 377.41, 210.78 380.09 C 210.63 382.77, 210.76 384.69, 210.95 387.72 C 211.13 390.75, 211.22 392.56, 211.72 395.23 C 212.22 397.90, 212.50 399.30, 213.43 401.07 C 214.35 402.85, 214.96 403.61, 216.34 404.09 C 217.71 404.57, 218.61 404.45, 220.30 403.48 C 222.00 402.50, 223.03 401.56, 224.84 399.21 C 226.64 396.86, 227.56 395.16, 229.34 391.72 C 231.12 388.28, 232.09 386.16, 233.74 382.00 C 235.39 377.85, 236.26 375.44, 237.58 370.95 C 238.89 366.46, 239.43 364.01, 240.29 359.54 C 241.16 355.07, 241.46 352.66, 241.90 348.58 C 242.35 344.51, 242.48 342.43, 242.52 339.17 C 242.56 335.91, 242.46 334.44, 242.10 332.29 C 241.75 330.13, 241.41 329.29, 240.75 328.39 C 240.08 327.48, 239.65 327.28, 238.78 327.76 C 237.91 328.24, 237.30 328.76, 236.39 330.78 C 235.48 332.81, 235.04 334.30, 234.21 337.91 C 233.38 341.51, 232.97 343.86, 232.23 348.81 C 231.49 353.75, 231.08 356.92, 230.53 362.62 C 229.98 368.31, 229.71 371.75, 229.50 377.29 C 229.28 382.83, 229.26 385.73, 229.44 390.31 C 229.63 394.88, 229.74 397.05, 230.42 400.16 C 231.10 403.27, 231.55 404.45, 232.83 405.85 C 234.11 407.25, 234.99 407.37, 236.82 407.16 C 238.65 406.94, 239.84 406.38, 241.98 404.77 C 244.11 403.17, 245.29 401.85, 247.50 399.14 C 249.71 396.43, 250.94 394.51, 253.03 391.21 C 255.11 387.92, 256.25 385.90, 257.93 382.66 C 259.61 379.43, 260.44 377.67, 261.43 375.06 C 262.43 372.45, 262.73 371.23, 262.90 369.61 C 263.06 367.99, 262.88 367.44, 262.25 366.96 C 261.63 366.47, 260.98 366.54, 259.79 367.19 C 258.60 367.83, 257.78 368.55, 256.30 370.17 C 254.81 371.79, 253.91 372.97, 252.36 375.29 C 250.81 377.61, 249.93 379.11, 248.54 381.78 C 247.14 384.45, 246.36 386.03, 245.40 388.64 C 244.43 391.24, 244.03 392.60, 243.71 394.81 C 243.40 397.01, 243.41 398.07, 243.84 399.66 C 244.26 401.25, 244.76 402.01, 245.85 402.75 C 246.93 403.49, 247.74 403.69, 249.28 403.36 C 250.82 403.02, 251.81 402.59, 253.55 401.06 C 255.29 399.54, 256.36 398.29, 257.96 395.75 C 259.56 393.20, 260.30 391.39, 261.57 388.33 C 262.83 385.26, 263.45 383.35, 264.27 380.40 C 265.09 377.45, 265.42 375.81, 265.67 373.57 C 265.91 371.33, 265.83 370.28, 265.51 369.20 C 265.20 368.12, 264.76 367.92, 264.10 368.17 C 263.45 368.42, 262.89 369.01, 262.26 370.43 C 261.62 371.85, 261.27 373.03, 260.94 375.26 C 260.62 377.49, 260.56 379.02, 260.63 381.58 C 260.70 384.14, 260.82 385.64, 261.30 388.08 C 261.77 390.52, 262.07 391.88, 263.00 393.79 C 263.92 395.71, 264.54 396.67, 265.92 397.65 C 267.30 398.62, 268.19 398.86, 269.90 398.65 C 271.61 398.45, 272.60 397.96, 274.46 396.60 C 276.32 395.25, 277.42 394.09, 279.20 391.86 C 280.99 389.63, 281.93 387.98, 283.39 385.46 C 284.85 382.94, 285.56 381.37, 286.50 379.26 C 287.44 377.16, 287.74 376.11, 288.09 374.94 C 288.44 373.76, 288.43 373.38, 288.25 373.39 C 288.08 373.40, 287.60 373.81, 287.21 374.98 C 286.81 376.15, 286.46 377.22, 286.27 379.26 C 286.09 381.30, 286.13 382.78, 286.28 385.16 C 286.43 387.54, 286.53 388.94, 287.03 391.16 C 287.52 393.39, 287.81 394.76, 288.76 396.28 C 289.71 397.80, 290.58 398.25, 291.76 398.77 C 292.94 399.29, 293.70 399.11, 294.67 398.88 C 295.63 398.66, 296.28 398.00, 296.60 397.63 C 296.93 397.25, 296.72 396.99, 296.28 397.00 C 295.85 397.02, 295.23 397.58, 294.43 397.70 C 293.64 397.81, 293.17 398.03, 292.32 397.59 C 291.47 397.14, 290.83 396.85, 290.17 395.49 C 289.50 394.13, 289.31 392.88, 288.98 390.79 C 288.66 388.70, 288.63 387.33, 288.55 385.05 C 288.47 382.77, 288.56 381.35, 288.59 379.38 C 288.62 377.41, 288.74 376.41, 288.69 375.20 C 288.64 373.98, 288.69 373.46, 288.35 373.30 C 288.01 373.14, 287.70 373.38, 286.99 374.41 C 286.28 375.43, 285.88 376.43, 284.80 378.43 C 283.73 380.43, 283.06 381.98, 281.60 384.40 C 280.15 386.82, 279.18 388.38, 277.52 390.54 C 275.87 392.69, 274.90 393.82, 273.33 395.17 C 271.76 396.53, 271.00 397.02, 269.68 397.30 C 268.36 397.58, 267.76 397.40, 266.73 396.56 C 265.71 395.73, 265.26 394.87, 264.55 393.10 C 263.85 391.34, 263.57 390.06, 263.21 387.75 C 262.86 385.44, 262.79 383.99, 262.80 381.55 C 262.80 379.11, 263.01 377.67, 263.23 375.55 C 263.46 373.43, 263.67 372.33, 263.91 370.94 C 264.15 369.56, 264.30 368.94, 264.43 368.61 C 264.56 368.28, 264.63 368.37, 264.54 369.31 C 264.45 370.25, 264.37 371.19, 263.97 373.31 C 263.56 375.43, 263.32 377.04, 262.51 379.91 C 261.69 382.77, 261.15 384.68, 259.89 387.62 C 258.64 390.57, 257.76 392.24, 256.23 394.65 C 254.70 397.06, 253.71 398.19, 252.24 399.66 C 250.77 401.13, 250.04 401.56, 248.89 401.99 C 247.74 402.42, 247.25 402.32, 246.50 401.80 C 245.76 401.27, 245.41 400.70, 245.17 399.36 C 244.94 398.01, 244.94 397.09, 245.34 395.08 C 245.74 393.07, 246.18 391.79, 247.17 389.31 C 248.15 386.84, 248.86 385.26, 250.26 382.70 C 251.67 380.15, 252.67 378.77, 254.20 376.54 C 255.73 374.30, 256.64 373.19, 257.92 371.54 C 259.20 369.88, 259.79 369.10, 260.59 368.26 C 261.38 367.43, 261.68 367.15, 261.90 367.37 C 262.12 367.60, 262.10 367.97, 261.69 369.38 C 261.27 370.79, 260.85 371.91, 259.82 374.43 C 258.80 376.95, 258.19 378.78, 256.57 381.97 C 254.95 385.16, 253.82 387.17, 251.74 390.39 C 249.65 393.60, 248.34 395.44, 246.16 398.04 C 243.99 400.64, 242.78 401.78, 240.87 403.37 C 238.96 404.97, 238.08 405.67, 236.62 406.03 C 235.17 406.39, 234.59 406.41, 233.61 405.18 C 232.62 403.95, 232.33 402.87, 231.71 399.88 C 231.10 396.90, 230.77 394.77, 230.53 390.25 C 230.29 385.74, 230.29 382.83, 230.50 377.33 C 230.70 371.82, 230.97 368.39, 231.56 362.72 C 232.15 357.06, 232.59 353.89, 233.45 349.00 C 234.30 344.12, 234.92 341.82, 235.84 338.31 C 236.75 334.79, 237.34 333.42, 238.03 331.44 C 238.71 329.45, 238.87 328.89, 239.26 328.37 C 239.65 327.84, 239.70 327.99, 239.98 328.81 C 240.26 329.63, 240.44 330.41, 240.66 332.48 C 240.88 334.55, 241.06 335.97, 241.06 339.16 C 241.07 342.36, 241.06 344.43, 240.68 348.46 C 240.30 352.49, 240.01 354.89, 239.17 359.32 C 238.32 363.76, 237.78 366.18, 236.46 370.62 C 235.13 375.06, 234.24 377.45, 232.55 381.52 C 230.85 385.59, 229.82 387.68, 227.97 390.99 C 226.12 394.29, 225.00 395.79, 223.30 398.04 C 221.61 400.29, 220.82 401.25, 219.50 402.26 C 218.18 403.27, 217.64 403.47, 216.69 403.11 C 215.75 402.75, 215.39 402.10, 214.78 400.47 C 214.17 398.83, 213.98 397.50, 213.64 394.93 C 213.30 392.36, 213.18 390.57, 213.09 387.62 C 212.99 384.67, 213.12 382.80, 213.15 380.17 C 213.18 377.54, 213.28 376.13, 213.24 374.48 C 213.20 372.84, 213.25 372.16, 212.96 371.94 C 212.66 371.73, 212.45 372.05, 211.77 373.41 C 211.09 374.77, 210.61 376.16, 209.55 378.74 C 208.49 381.33, 207.92 383.33, 206.46 386.32 C 205.00 389.31, 203.91 391.15, 202.24 393.68 C 200.56 396.22, 199.54 397.45, 198.09 399.00 C 196.64 400.55, 196.07 401.06, 194.99 401.42 C 193.91 401.79, 193.47 401.69, 192.68 400.85 C 191.90 400.01, 191.57 399.17, 191.08 397.23 C 190.60 395.28, 190.45 393.94, 190.26 391.14 C 190.08 388.33, 190.03 386.45, 190.15 383.20 C 190.28 379.95, 190.56 378.00, 190.88 374.89 C 191.20 371.79, 191.55 370.09, 191.77 367.68 C 191.99 365.26, 192.11 364.19, 191.98 362.83 C 191.85 361.48, 191.68 361.07, 191.11 360.91 C 190.54 360.76, 190.12 361.04, 189.12 362.06 C 188.13 363.07, 187.52 364.00, 186.14 366.00 C 184.77 367.99, 183.95 369.34, 182.25 372.03 C 180.55 374.71, 179.53 376.33, 177.62 379.42 C 175.72 382.52, 174.63 384.30, 172.72 387.50 C 170.81 390.70, 169.76 392.49, 168.06 395.43 C 166.37 398.37, 165.41 399.79, 164.24 402.20 C 163.08 404.61, 162.64 405.69, 162.22 407.48 C 161.81 409.28, 161.84 410.08, 162.15 411.16 C 162.46 412.24, 162.91 412.60, 163.78 412.88 C 164.64 413.16, 165.26 413.03, 166.47 412.56 C 167.68 412.08, 168.40 411.68, 169.83 410.51 C 171.25 409.34, 172.09 408.54, 173.59 406.71 C 175.09 404.88, 175.90 403.77, 177.33 401.34 C 178.76 398.90, 179.53 397.39, 180.75 394.55 C 181.98 391.72, 182.56 390.13, 183.45 387.17 C 184.34 384.21, 184.79 382.57, 185.20 379.74 C 185.61 376.92, 185.66 375.52, 185.51 373.06 C 185.36 370.60, 185.12 369.36, 184.45 367.46 C 183.77 365.56, 183.24 364.75, 182.14 363.55 C 181.03 362.35, 180.36 361.95, 178.93 361.47 C 177.50 360.99, 176.70 360.85, 175.00 361.17 C 173.31 361.49, 172.30 361.88, 170.47 363.07 C 168.64 364.27, 167.62 365.21, 165.84 367.16 C 164.06 369.10, 163.16 370.34, 161.57 372.79 C 159.97 375.25, 159.19 376.68, 157.88 379.44 C 156.57 382.20, 156.00 383.69, 155.02 386.60 C 154.04 389.52, 153.56 391.10, 152.99 394.02 C 152.41 396.93, 152.21 398.50, 152.15 401.17 C 152.08 403.84, 152.25 405.27, 152.67 407.38 C 153.09 409.48, 153.40 410.71, 154.24 411.70 C 155.07 412.68, 155.73 412.89, 156.84 412.31 C 157.96 411.74, 158.65 410.89, 159.81 408.84 C 160.98 406.79, 161.50 405.32, 162.66 402.07 C 163.83 398.82, 164.54 396.59, 165.63 392.59 C 166.71 388.59, 167.27 386.18, 168.09 382.08 C 168.90 377.98, 169.26 375.55, 169.69 372.09 C 170.13 368.62, 170.26 367.07, 170.27 364.75 C 170.28 362.43, 169.99 361.35, 169.74 360.50 C 169.48 359.65, 169.23 359.68, 169.02 360.52" style="stroke: black; fill: black;"/><path d="M 290.32,333.18 C 290.37 332.76, 290.16 332.17, 289.87 331.66 C 289.59 331.15, 289.24 330.83, 288.89 330.63 C 288.55 330.42, 288.29 330.60, 288.14 330.64 C 287.99 330.68, 288.14 330.86, 288.16 330.85 C 288.18 330.83, 288.32 330.60, 288.24 330.56 C 288.17 330.51, 287.94 330.43, 287.78 330.63 C 287.63 330.82, 287.40 331.06, 287.48 331.52 C 287.56 331.98, 287.74 332.49, 288.17 332.94 C 288.60 333.38, 289.20 333.70, 289.63 333.75 C 290.06 333.80, 290.28 333.60, 290.32 333.18" style="stroke: black; fill: black;"/></svg>